<svg width="323" height="525" viewBox="0 0 323 525" fill="none" xmlns="http://www.w3.org/2000/svg">
<path d="M291 420.5C291 500.857 225.857 524.5 145.5 524.5C65.1426 524.5 0 500.857 0 420.5C0 340.143 65.1426 275 145.5 275C225.857 275 291 340.143 291 420.5Z" fill="#D2985B"/>
<path d="M116 276C125.167 264.833 143.7 235.7 144.5 208.5C145.3 181.3 140.833 174.167 138.5 174H164C168.167 182.167 176.3 205.5 175.5 233.5C174.716 260.953 167.779 289.368 164.209 300.835L165.5 301.5H164C164.068 301.285 164.138 301.063 164.209 300.835L116 276Z" fill="#CC9339"/>
<mask id="mask0_257_265" style="mask-type:alpha" maskUnits="userSpaceOnUse" x="0" y="275" width="291" height="250">
<path d="M291 420.5C291 500.857 225.857 524.5 145.5 524.5C65.1426 524.5 0 500.857 0 420.5C0 340.143 65.1426 275 145.5 275C225.857 275 291 340.143 291 420.5Z" fill="#DBA869"/>
</mask>
<g mask="url(#mask0_257_265)">
<path d="M73.5002 563C41.1002 491.8 40.6668 338.333 44.5002 270.5L88 206.5L182.5 194.5C210.667 222.5 269.8 295.6 281 364C292.2 432.4 253.333 518.5 232.5 553C222.333 559.833 208.1 556.4 232.5 488C256.9 419.6 236.667 342.833 223.5 313L182.5 234C190.833 289.667 206.4 414.3 202 467.5C197.6 520.7 172.5 572.667 160.5 592C145 612 105.9 634.2 73.5002 563Z" fill="#E2AE6E"/>
</g>
<mask id="mask1_257_265" style="mask-type:alpha" maskUnits="userSpaceOnUse" x="0" y="275" width="291" height="250">
<path d="M291 420.5C291 500.857 225.857 524.5 145.5 524.5C65.1426 524.5 0 500.857 0 420.5C0 340.143 65.1426 275 145.5 275C225.857 275 291 340.143 291 420.5Z" fill="#DBA869"/>
</mask>
<g mask="url(#mask1_257_265)">
<path d="M24.4295 428.494C3.64723 437.791 -7.13343 423.983 -11.3718 406.5L-11.3718 401.951C-14.6787 395.337 -20.1694 388.267 -20.1694 380.568C-20.1694 369.281 -13.1174 356.801 -9.41683 346.11C-6.88876 338.807 -1.83044 329.985 2.92424 323.872C5.50017 320.56 6.82939 316.785 9.7668 313.73C12.7716 310.605 16.1925 307.627 18.8088 304.139C33.5074 284.54 57.9261 274.679 77.4593 260.945C93.4655 249.691 108.702 239.956 126.946 232.658C138.886 227.882 152.759 222.836 165.68 221.661C177.985 220.543 192.311 220.793 204.413 222.944C213.834 224.619 225.742 226.4 233.861 231.742C244.668 238.851 254.043 246.156 260.742 257.768C266.618 267.952 272.798 277.678 277.299 288.682C282.622 301.694 287.537 314.803 294.283 327.171C301.733 340.829 306.456 355.671 313.406 369.571C319.913 382.586 320.154 398.11 315.483 411.604C313.234 418.099 311.179 419.471 304.914 418.507C300.495 417.827 293.304 417.924 289.396 420.096C270.188 430.767 249.788 430.492 229.096 422.845C225.154 421.388 219.575 418.6 215.41 418.446C211.819 418.313 209.39 420.786 206.307 422.173C197.201 426.271 188.117 431.762 179.426 436.591C177.118 437.873 168.333 436.38 165.619 435.43C159.797 433.393 153.648 432.293 147.718 430.543C139.284 428.054 133.169 424.59 124.135 426.999C110.529 430.628 99.2388 438.93 86.0126 443.739C79.5393 446.093 74.9681 442.839 70.3113 437.996C65.2532 432.736 57.0774 421.745 48.8672 421.745C45.5513 421.745 42.3411 422.24 39.2143 423.456C34.6963 425.213 28.7048 426.581 24.4295 428.494Z" fill="#6DA335"/>
</g>
<path d="M86 392.5L95 356.5L134 371L86 392.5Z" fill="#C1CF44"/>
<path d="M128.188 328.643L159.426 308.613L177.868 345.911L128.188 328.643Z" fill="#C1CF44"/>
<path d="M188 374.834L217.932 350.493L223.437 376.843L188 374.834Z" fill="#97CB55"/>
<mask id="mask2_257_265" style="mask-type:alpha" maskUnits="userSpaceOnUse" x="0" y="275" width="291" height="250">
<path d="M291 420.5C291 500.857 225.857 524.5 145.5 524.5C65.1426 524.5 0 500.857 0 420.5C0 340.143 65.1426 275 145.5 275C225.857 275 291 340.143 291 420.5Z" fill="#D2985B"/>
</mask>
<g mask="url(#mask2_257_265)">
<path d="M-11.0002 356.57L49.181 348.741L34.7646 388.555L-11.0002 356.57Z" fill="#97CB55"/>
</g>
<path d="M75.7239 332.362L82.3986 309.724L102.977 320.623L75.7239 332.362Z" fill="#97CB55"/>
<path d="M116 258.5V290H179L187 252L161 270L153.5 252L135.5 270L116 258.5Z" fill="#6DA335"/>
<ellipse cx="137.991" cy="178.254" rx="20.5" ry="16.5" transform="rotate(-59.2205 137.991 178.254)" fill="#B48E47"/>
<ellipse cx="167.691" cy="161.394" rx="20.5" ry="16.5" transform="rotate(26.5068 167.691 161.394)" fill="#B48E47"/>
<ellipse cx="128.176" cy="161.419" rx="20.5" ry="16.5" transform="rotate(0.464768 128.176 161.419)" fill="#CEB65A"/>
<ellipse cx="158.236" cy="173.444" rx="20.5" ry="16.5" transform="rotate(-59.2205 158.236 173.444)" fill="#CEB65A"/>
<ellipse cx="151.942" cy="151.526" rx="20.5" ry="16.5" transform="rotate(-59.2205 151.942 151.526)" fill="#CEB65A"/>
<path d="M210 201.36C197.6 151.36 161.833 150.194 145.5 155.86C143 155.86 135.5 154.96 125.5 151.36C115.5 147.76 110.667 159.193 109.5 165.36C96.7 165.36 91.8333 178.36 91 184.86C87.4 181.261 85.8333 170.36 85.5 165.36C75.9 165.36 58.5 190.027 51 202.36C48.6 188.76 52 172.027 54 165.36C34.4 168.56 19.8333 194.36 15 206.86C12.2 130.86 71.1667 118.527 101 121.86C87 103.061 68.8333 109.36 61.5 114.86C61.5 104.06 72.8333 99.6935 78.5 98.8601C61.7 75.2599 38.5 89.0267 29 98.8601C29.4 86.0599 45.8333 75.5269 54 71.8604C40 60.6606 12.1667 59.5271 0 60.3603C17 48.8603 28.5 40.8601 65.5 37.3601C95.1 34.5601 126.167 77.1934 138 98.8601C136 89.8602 135.5 63.7603 149.5 31.3602C163.5 -1.0399 198.333 -2.13984 214 1.36021C194 6.96021 181.666 43.0269 178 60.3603C192.8 55.1603 202.5 58.1936 205.5 60.3603C179.5 67.5603 168.666 99.6937 166.5 114.86C175.833 101.527 204.8 74.2604 246 71.8604C287.2 69.4604 314.5 99.527 323 114.86C302.2 100.46 277.666 106.194 268 110.86C280.4 120.46 281.833 133.194 281 138.36C265.8 115.96 230 118.027 214 121.86C219.6 123.06 223.666 126.694 225 128.36C214.2 125.56 200.166 133.86 194.5 138.36C207 135.527 238.2 136.16 263 161.36C287.8 186.56 291.333 219.527 290 232.86C283.6 216.46 262.333 201.36 252.5 195.86C252.9 204.66 248.333 217.527 246 222.86C242 203.26 226.333 189.36 219 184.86C219 191.66 213 198.694 210 201.36Z" fill="#3E963A"/>
</svg>
