<svg width="596" height="335" viewBox="0 0 596 335" fill="none" xmlns="http://www.w3.org/2000/svg">
<path d="M297.56 105.316V33.4331L90.2715 105.316H297.56Z" fill="url(#paint0_linear_257_228)"/>
<path d="M297.56 33.4333V20.0598L33.4336 106.987H85.2558L297.56 33.4333Z" fill="url(#paint1_linear_257_228)"/>
<path d="M297.559 20.538V10.0303L6.68604 104.6V120.361H297.559V104.6H43.7062L297.559 20.538Z" fill="#D6CDA2"/>
<path d="M0 110.331V99.8234L297.56 0V10.5077L0 110.331Z" fill="#5EAEA6"/>
<path d="M297.56 133.734V123.704V120.361H157.138V133.734H297.56Z" fill="url(#paint2_linear_257_228)"/>
<path d="M157.138 133.734V123.704V120.361H10.0303V133.734H157.138Z" fill="url(#paint3_linear_257_228)"/>
<path d="M297.559 127.048V112.003V106.988H147.108V127.048H297.559Z" fill="#E3DCB3"/>
<path d="M170.512 300.903V175.527V133.735H53.4941V300.903H170.512Z" fill="url(#paint4_linear_257_228)"/>
<path d="M210.632 153.795V138.75V133.735H157.138V153.795H210.632Z" fill="url(#paint5_linear_257_228)"/>
<path d="M63.5242 143.765V136.242V133.735H10.0303V143.765H63.5242Z" fill="url(#paint6_linear_257_228)"/>
<rect x="190.572" y="153.795" width="30.0903" height="153.795" fill="url(#paint7_linear_257_228)"/>
<path d="M210.632 310.934V303.411V300.904H157.138V310.934H210.632Z" fill="#C7AF84"/>
<path d="M210.632 334.336V316.784V310.933H157.138V334.336H210.632Z" fill="#A49370"/>
<path d="M63.5242 334.337V309.262V300.904H10.0303V334.337H63.5242Z" fill="#887C67"/>
<path d="M157.139 334.337V309.262V300.904H63.5244V334.337H157.139Z" fill="url(#paint8_linear_257_228)"/>
<path d="M157.138 300.903H210.632L199.933 153.795H167.837L157.138 300.903Z" fill="url(#paint9_linear_257_228)"/>
<path d="M10.0303 300.903H63.5242L52.8254 143.765H20.7291L10.0303 300.903Z" fill="url(#paint10_linear_257_228)"/>
<rect x="83.5835" y="133.735" width="53.4939" height="157.138" fill="url(#paint11_linear_257_228)"/>
<rect x="210.632" y="133.735" width="86.9276" height="20.0602" fill="url(#paint12_linear_257_228)"/>
<rect x="210.632" y="304.246" width="86.9276" height="13.3735" fill="url(#paint13_linear_257_228)"/>
<rect x="210.632" y="317.621" width="86.9276" height="6.68674" fill="#7B6F58"/>
<rect x="210.632" y="324.307" width="86.9276" height="6.68674" fill="url(#paint14_linear_257_228)"/>
<rect x="210.632" y="330.993" width="86.9276" height="3.34337" fill="#756A59"/>
<rect x="220.662" y="153.795" width="76.8975" height="140.421" fill="#483125"/>
<rect x="220.662" y="294.216" width="76.8975" height="10.0301" fill="url(#paint15_linear_257_228)"/>
<path d="M297.559 106.988V35.1052C297.559 35.1052 260.782 35.1052 260.782 70.2106C260.782 106.988 297.559 106.988 297.559 106.988Z" fill="url(#paint16_linear_257_228)"/>
<path d="M297.559 96.9578V43.4639C297.559 43.4639 270.812 43.4639 270.812 69.5888C270.812 96.9578 297.559 96.9578 297.559 96.9578Z" fill="#E5C179"/>
<path d="M297.56 93.614V46.8069C297.56 46.8069 274.156 46.8069 274.156 69.6662C274.156 93.614 297.56 93.614 297.56 93.614Z" fill="#C59C5A"/>
<path d="M297.56 90.2713V50.1509C297.56 50.1509 277.5 50.1509 277.5 69.7446C277.5 90.2713 297.56 90.2713 297.56 90.2713Z" fill="#DFB574"/>
<path d="M297.559 105.316V33.4331L504.848 105.316H297.559Z" fill="url(#paint17_linear_257_228)"/>
<path d="M297.56 33.4333V20.0598L561.686 106.987H509.864L297.56 33.4333Z" fill="url(#paint18_linear_257_228)"/>
<path d="M297.561 20.538V10.0303L588.434 104.6V120.361H297.561V104.6H551.413L297.561 20.538Z" fill="#D6CDA2"/>
<path d="M595.12 110.331V99.8234L297.56 0V10.5077L595.12 110.331Z" fill="#5EAEA6"/>
<path d="M297.56 133.734V123.704V120.361H437.981V133.734H297.56Z" fill="url(#paint19_linear_257_228)"/>
<path d="M437.981 133.734V123.704V120.361H585.089V133.734H437.981Z" fill="url(#paint20_linear_257_228)"/>
<path d="M297.56 127.048V112.003V106.988H448.012V127.048H297.56Z" fill="#E3DCB3"/>
<path d="M424.608 300.903V175.527V133.735H541.625V300.903H424.608Z" fill="url(#paint21_linear_257_228)"/>
<path d="M384.488 153.795V138.75V133.735H437.981V153.795H384.488Z" fill="url(#paint22_linear_257_228)"/>
<path d="M531.595 143.765V136.242V133.735H585.089V143.765H531.595Z" fill="url(#paint23_linear_257_228)"/>
<rect width="30.0903" height="153.795" transform="matrix(-1 0 0 1 404.548 153.795)" fill="url(#paint24_linear_257_228)"/>
<path d="M384.488 310.934V303.411V300.904H437.981V310.934H384.488Z" fill="#C7AF84"/>
<path d="M384.488 334.336V316.784V310.933H437.981V334.336H384.488Z" fill="#A49370"/>
<path d="M531.595 334.337V309.262V300.904H585.089V334.337H531.595Z" fill="#887C67"/>
<path d="M437.981 334.337V309.262V300.904H531.595V334.337H437.981Z" fill="url(#paint25_linear_257_228)"/>
<path d="M437.981 300.903H384.488L395.186 153.795H427.283L437.981 300.903Z" fill="url(#paint26_linear_257_228)"/>
<path d="M585.089 300.903H531.595L542.294 143.765H574.391L585.089 300.903Z" fill="url(#paint27_linear_257_228)"/>
<rect width="53.4939" height="157.138" transform="matrix(-1 0 0 1 511.536 133.735)" fill="url(#paint28_linear_257_228)"/>
<rect width="86.9276" height="20.0602" transform="matrix(-1 0 0 1 384.487 133.735)" fill="url(#paint29_linear_257_228)"/>
<rect width="86.9276" height="13.3735" transform="matrix(-1 0 0 1 384.487 304.246)" fill="url(#paint30_linear_257_228)"/>
<rect width="86.9276" height="6.68674" transform="matrix(-1 0 0 1 384.487 317.621)" fill="#7B6F58"/>
<rect width="86.9276" height="6.68674" transform="matrix(-1 0 0 1 384.487 324.307)" fill="url(#paint31_linear_257_228)"/>
<rect width="86.9276" height="3.34337" transform="matrix(-1 0 0 1 384.487 330.993)" fill="#756A59"/>
<rect width="76.8975" height="140.421" transform="matrix(-1 0 0 1 374.457 153.795)" fill="#483125"/>
<rect width="76.8975" height="10.0301" transform="matrix(-1 0 0 1 374.457 294.216)" fill="url(#paint32_linear_257_228)"/>
<path d="M297.56 106.988V35.1052C297.56 35.1052 334.337 35.1052 334.337 70.2106C334.337 106.988 297.56 106.988 297.56 106.988Z" fill="url(#paint33_linear_257_228)"/>
<path d="M297.56 96.9578V43.4639C297.56 43.4639 324.307 43.4639 324.307 69.5888C324.307 96.9578 297.56 96.9578 297.56 96.9578Z" fill="#E5C179"/>
<path d="M297.56 93.614V46.8069C297.56 46.8069 320.963 46.8069 320.963 69.6662C320.963 93.614 297.56 93.614 297.56 93.614Z" fill="#C59C5A"/>
<path d="M297.56 90.2713V50.1509C297.56 50.1509 317.62 50.1509 317.62 69.7446C317.62 90.2713 297.56 90.2713 297.56 90.2713Z" fill="#DFB574"/>
<defs>
<linearGradient id="paint0_linear_257_228" x1="212.304" y1="108.659" x2="192.244" y2="56.8367" gradientUnits="userSpaceOnUse">
<stop stop-color="#D3CBA7"/>
<stop offset="1" stop-color="#6D6956"/>
</linearGradient>
<linearGradient id="paint1_linear_257_228" x1="163.825" y1="58.5085" x2="170.512" y2="78.5688" gradientUnits="userSpaceOnUse">
<stop stop-color="#A6A283"/>
<stop offset="1" stop-color="#D7CFA7"/>
</linearGradient>
<linearGradient id="paint2_linear_257_228" x1="227.349" y1="120.361" x2="227.349" y2="133.734" gradientUnits="userSpaceOnUse">
<stop stop-color="#A49E7E"/>
<stop offset="1" stop-color="#C9C49F"/>
</linearGradient>
<linearGradient id="paint3_linear_257_228" x1="83.5844" y1="120.361" x2="83.5844" y2="133.734" gradientUnits="userSpaceOnUse">
<stop stop-color="#A49E7E"/>
<stop offset="1" stop-color="#C9C49F"/>
</linearGradient>
<linearGradient id="paint4_linear_257_228" x1="149.243" y1="256.773" x2="58.3997" y2="324.442" gradientUnits="userSpaceOnUse">
<stop stop-color="#D9CDA3"/>
<stop offset="1" stop-color="#B5AB88"/>
</linearGradient>
<linearGradient id="paint5_linear_257_228" x1="183.885" y1="153.795" x2="183.885" y2="118.689" gradientUnits="userSpaceOnUse">
<stop stop-color="#E3DCB3"/>
<stop offset="1" stop-color="#7D7963"/>
</linearGradient>
<linearGradient id="paint6_linear_257_228" x1="36.7772" y1="143.765" x2="36.7772" y2="126.212" gradientUnits="userSpaceOnUse">
<stop stop-color="#E3DCB3"/>
<stop offset="1" stop-color="#7D7963"/>
</linearGradient>
<linearGradient id="paint7_linear_257_228" x1="205.617" y1="153.795" x2="205.617" y2="307.59" gradientUnits="userSpaceOnUse">
<stop stop-color="#918C7C"/>
<stop offset="1" stop-color="#DFD7A6"/>
</linearGradient>
<linearGradient id="paint8_linear_257_228" x1="110.332" y1="300.904" x2="110.332" y2="334.337" gradientUnits="userSpaceOnUse">
<stop stop-color="#A49072"/>
<stop offset="1" stop-color="#796A54"/>
</linearGradient>
<linearGradient id="paint9_linear_257_228" x1="183.885" y1="300.903" x2="183.885" y2="43.4638" gradientUnits="userSpaceOnUse">
<stop stop-color="#E3DCB3"/>
<stop offset="1" stop-color="#7D7963"/>
</linearGradient>
<linearGradient id="paint10_linear_257_228" x1="36.7772" y1="300.903" x2="36.7772" y2="25.9111" gradientUnits="userSpaceOnUse">
<stop stop-color="#E3DCB3"/>
<stop offset="1" stop-color="#7D7963"/>
</linearGradient>
<linearGradient id="paint11_linear_257_228" x1="110.33" y1="133.735" x2="110.33" y2="290.873" gradientUnits="userSpaceOnUse">
<stop stop-color="#5E2F24"/>
<stop offset="0.12" stop-color="#874334"/>
<stop offset="1" stop-color="#C4614C"/>
</linearGradient>
<linearGradient id="paint12_linear_257_228" x1="254.096" y1="133.735" x2="254.096" y2="153.795" gradientUnits="userSpaceOnUse">
<stop stop-color="#949280"/>
<stop offset="0.74" stop-color="#ACA992"/>
<stop offset="1" stop-color="#D7CFA9"/>
</linearGradient>
<linearGradient id="paint13_linear_257_228" x1="254.096" y1="307.589" x2="254.096" y2="317.62" gradientUnits="userSpaceOnUse">
<stop stop-color="#938B75"/>
<stop offset="0.8" stop-color="#A7997C"/>
<stop offset="1" stop-color="#CFBA93"/>
</linearGradient>
<linearGradient id="paint14_linear_257_228" x1="254.096" y1="324.307" x2="254.096" y2="330.994" gradientUnits="userSpaceOnUse">
<stop stop-color="#8F8A81"/>
<stop offset="1" stop-color="#A09673"/>
</linearGradient>
<linearGradient id="paint15_linear_257_228" x1="259.111" y1="294.216" x2="259.111" y2="304.246" gradientUnits="userSpaceOnUse">
<stop offset="0.365" stop-color="#5B3728"/>
<stop offset="0.89" stop-color="#914740"/>
</linearGradient>
<linearGradient id="paint16_linear_257_228" x1="279.171" y1="35.1052" x2="279.171" y2="106.988" gradientUnits="userSpaceOnUse">
<stop stop-color="#E3DFB1"/>
<stop offset="1" stop-color="#C9BF90"/>
</linearGradient>
<linearGradient id="paint17_linear_257_228" x1="382.815" y1="108.659" x2="402.875" y2="56.8367" gradientUnits="userSpaceOnUse">
<stop stop-color="#D3CBA7"/>
<stop offset="1" stop-color="#6D6956"/>
</linearGradient>
<linearGradient id="paint18_linear_257_228" x1="431.295" y1="58.5085" x2="424.608" y2="78.5688" gradientUnits="userSpaceOnUse">
<stop stop-color="#A6A283"/>
<stop offset="1" stop-color="#D7CFA7"/>
</linearGradient>
<linearGradient id="paint19_linear_257_228" x1="367.771" y1="120.361" x2="367.771" y2="133.734" gradientUnits="userSpaceOnUse">
<stop stop-color="#A49E7E"/>
<stop offset="1" stop-color="#C9C49F"/>
</linearGradient>
<linearGradient id="paint20_linear_257_228" x1="511.535" y1="120.361" x2="511.535" y2="133.734" gradientUnits="userSpaceOnUse">
<stop stop-color="#A49E7E"/>
<stop offset="1" stop-color="#C9C49F"/>
</linearGradient>
<linearGradient id="paint21_linear_257_228" x1="437.533" y1="193.738" x2="547.844" y2="321.661" gradientUnits="userSpaceOnUse">
<stop stop-color="#D9CDA3"/>
<stop offset="1" stop-color="#B5AB88"/>
</linearGradient>
<linearGradient id="paint22_linear_257_228" x1="411.235" y1="153.795" x2="411.235" y2="118.689" gradientUnits="userSpaceOnUse">
<stop stop-color="#E3DCB3"/>
<stop offset="1" stop-color="#7D7963"/>
</linearGradient>
<linearGradient id="paint23_linear_257_228" x1="558.342" y1="143.765" x2="558.342" y2="126.212" gradientUnits="userSpaceOnUse">
<stop stop-color="#E3DCB3"/>
<stop offset="1" stop-color="#7D7963"/>
</linearGradient>
<linearGradient id="paint24_linear_257_228" x1="15.0452" y1="0" x2="15.0452" y2="153.795" gradientUnits="userSpaceOnUse">
<stop stop-color="#918C7C"/>
<stop offset="1" stop-color="#DFD7A6"/>
</linearGradient>
<linearGradient id="paint25_linear_257_228" x1="484.788" y1="300.904" x2="484.788" y2="334.337" gradientUnits="userSpaceOnUse">
<stop stop-color="#A49072"/>
<stop offset="1" stop-color="#796A54"/>
</linearGradient>
<linearGradient id="paint26_linear_257_228" x1="411.235" y1="300.903" x2="411.235" y2="43.4638" gradientUnits="userSpaceOnUse">
<stop stop-color="#E3DCB3"/>
<stop offset="1" stop-color="#7D7963"/>
</linearGradient>
<linearGradient id="paint27_linear_257_228" x1="558.342" y1="300.903" x2="558.342" y2="25.9111" gradientUnits="userSpaceOnUse">
<stop stop-color="#E3DCB3"/>
<stop offset="1" stop-color="#7D7963"/>
</linearGradient>
<linearGradient id="paint28_linear_257_228" x1="26.7469" y1="0" x2="26.7469" y2="157.138" gradientUnits="userSpaceOnUse">
<stop stop-color="#5E2F24"/>
<stop offset="0.12" stop-color="#874334"/>
<stop offset="1" stop-color="#C4614C"/>
</linearGradient>
<linearGradient id="paint29_linear_257_228" x1="43.4638" y1="0" x2="43.4638" y2="20.0602" gradientUnits="userSpaceOnUse">
<stop stop-color="#949280"/>
<stop offset="0.74" stop-color="#ACA992"/>
<stop offset="1" stop-color="#D7CFA9"/>
</linearGradient>
<linearGradient id="paint30_linear_257_228" x1="43.4638" y1="3.34337" x2="43.4638" y2="13.3735" gradientUnits="userSpaceOnUse">
<stop stop-color="#938B75"/>
<stop offset="0.8" stop-color="#A7997C"/>
<stop offset="1" stop-color="#CFBA93"/>
</linearGradient>
<linearGradient id="paint31_linear_257_228" x1="43.4638" y1="0" x2="43.4638" y2="6.68674" gradientUnits="userSpaceOnUse">
<stop stop-color="#8F8A81"/>
<stop offset="1" stop-color="#A09673"/>
</linearGradient>
<linearGradient id="paint32_linear_257_228" x1="38.4487" y1="0" x2="38.4487" y2="10.0301" gradientUnits="userSpaceOnUse">
<stop offset="0.365" stop-color="#5B3728"/>
<stop offset="0.89" stop-color="#914740"/>
</linearGradient>
<linearGradient id="paint33_linear_257_228" x1="315.949" y1="35.1052" x2="315.949" y2="106.988" gradientUnits="userSpaceOnUse">
<stop stop-color="#E3DFB1"/>
<stop offset="1" stop-color="#C9BF90"/>
</linearGradient>
</defs>
</svg>
